<svg width="512" height="512" viewBox="0 0 512 512" fill="none" xmlns="http://www.w3.org/2000/svg">
<path d="M374.921 84.5005L284.525 180.367L353.676 438.442L444.072 342.576L374.921 84.5005Z" fill="#EF6C00"/>
<path d="M284.525 180.367L158.307 142.542L227.458 400.617L353.676 438.442L284.525 180.367Z" fill="#EF6C00"/>
<path d="M158.307 142.542L67.9112 238.409L137.062 496.484L227.458 400.617L158.307 142.542Z" fill="#EF6C00"/>
<line x1="164.926" y1="148.533" x2="230.194" y2="392.119" stroke="black" stroke-width="15" stroke-linecap="round" stroke-dasharray="40 40"/>
<line x1="291.395" y1="186.358" x2="356.664" y2="429.944" stroke="black" stroke-width="15" stroke-linecap="round" stroke-dasharray="40 40"/>
<path d="M284.525 180.367L374.921 84.5005L444.072 342.576L353.676 438.442" stroke="black" stroke-width="15" stroke-linecap="round"/>
<path d="M158.307 142.542L284.525 180.367M353.676 438.442L227.458 400.617" stroke="black" stroke-width="15" stroke-linecap="round"/>
<path d="M158.307 142.542L67.9112 238.409L137.062 496.484L227.458 400.617" stroke="black" stroke-width="15" stroke-linecap="round"/>
<path d="M374.921 49.7491L284.525 145.616L353.676 403.691L444.072 307.824L374.921 49.7491Z" fill="#FF8F00"/>
<path d="M284.525 145.616L158.307 107.791L227.458 365.866L353.676 403.691L284.525 145.616Z" fill="#FF8F00"/>
<path d="M158.307 107.791L67.9112 203.657L137.062 461.732L227.458 365.866L158.307 107.791Z" fill="#FF8F00"/>
<line x1="164.926" y1="113.782" x2="230.194" y2="357.368" stroke="black" stroke-width="15" stroke-linecap="round" stroke-dasharray="40 40"/>
<line x1="291.395" y1="151.606" x2="356.664" y2="395.193" stroke="black" stroke-width="15" stroke-linecap="round" stroke-dasharray="40 40"/>
<path d="M284.525 145.616L374.921 49.7491L444.072 307.824L353.676 403.691" stroke="black" stroke-width="15" stroke-linecap="round"/>
<path d="M158.307 107.791L284.525 145.616M353.676 403.691L227.458 365.866" stroke="black" stroke-width="15" stroke-linecap="round"/>
<path d="M158.307 107.791L67.9112 203.657L137.062 461.732L227.458 365.866" stroke="black" stroke-width="15" stroke-linecap="round"/>
<path d="M374.921 15L284.525 110.866L353.676 368.942L444.072 273.075L374.921 15Z" fill="#FBC02D"/>
<path d="M284.525 110.866L158.307 73.0415L227.458 331.117L353.676 368.942L284.525 110.866Z" fill="#F9A825"/>
<path d="M158.307 73.0415L67.9112 168.908L137.062 426.983L227.458 331.117L158.307 73.0415Z" fill="#FBC02D"/>
<line x1="164.926" y1="79.0326" x2="230.194" y2="322.619" stroke="black" stroke-width="15" stroke-linecap="round" stroke-dasharray="40 40"/>
<line x1="291.395" y1="116.857" x2="356.664" y2="360.444" stroke="black" stroke-width="15" stroke-linecap="round" stroke-dasharray="40 40"/>
<path d="M284.525 110.866L374.921 15L444.072 273.075L353.676 368.942" stroke="black" stroke-width="15" stroke-linecap="round"/>
<path d="M158.307 73.0415L284.525 110.866M353.676 368.942L227.458 331.117" stroke="black" stroke-width="15" stroke-linecap="round"/>
<path d="M158.307 73.0415L67.9112 168.908L137.062 426.983L227.458 331.117" stroke="black" stroke-width="15" stroke-linecap="round"/>
</svg>
