<svg width="512" height="512" viewBox="0 0 512 512" fill="none" xmlns="http://www.w3.org/2000/svg">
<path d="M334.299 142.053L274.401 205.576L320.222 376.582L380.12 313.059L334.299 142.053Z" fill="#EF6C00"/>
<path d="M274.401 205.576L190.766 180.512L236.587 351.518L320.222 376.582L274.401 205.576Z" fill="#EF6C00"/>
<path d="M190.767 180.512L130.868 244.035L176.689 415.041L236.587 351.518L190.767 180.512Z" fill="#EF6C00"/>
<line x1="196.414" y1="185.211" x2="239.129" y2="344.626" stroke="black" stroke-width="12" stroke-linecap="round" stroke-dasharray="40 40"/>
<line x1="280.216" y1="210.274" x2="322.931" y2="369.689" stroke="black" stroke-width="12" stroke-linecap="round" stroke-dasharray="40 40"/>
<path d="M274.401 205.576L334.299 142.053L380.12 313.059L320.222 376.582" stroke="black" stroke-width="12" stroke-linecap="round"/>
<path d="M190.766 180.512L274.401 205.576M320.222 376.582L236.587 351.518" stroke="black" stroke-width="12" stroke-linecap="round"/>
<path d="M190.767 180.512L130.868 244.035L176.689 415.041L236.587 351.518" stroke="black" stroke-width="12" stroke-linecap="round"/>
<path d="M334.3 119.026L274.401 182.549L320.222 353.555L380.121 290.032L334.3 119.026Z" fill="#FF8F00"/>
<path d="M274.401 182.549L190.766 157.485L236.587 328.491L320.222 353.555L274.401 182.549Z" fill="#FF8F00"/>
<path d="M190.767 157.485L130.868 221.008L176.689 392.014L236.587 328.491L190.767 157.485Z" fill="#FF8F00"/>
<line x1="196.414" y1="162.184" x2="239.129" y2="321.599" stroke="black" stroke-width="12" stroke-linecap="round" stroke-dasharray="40 40"/>
<line x1="280.216" y1="187.247" x2="322.931" y2="346.662" stroke="black" stroke-width="12" stroke-linecap="round" stroke-dasharray="40 40"/>
<path d="M274.401 182.549L334.3 119.026L380.121 290.032L320.222 353.555" stroke="black" stroke-width="12" stroke-linecap="round"/>
<path d="M190.766 157.485L274.401 182.549M320.222 353.555L236.587 328.491" stroke="black" stroke-width="12" stroke-linecap="round"/>
<path d="M190.767 157.485L130.868 221.008L176.689 392.014L236.587 328.491" stroke="black" stroke-width="12" stroke-linecap="round"/>
<path d="M334.299 96L274.401 159.523L320.222 330.529L380.12 267.006L334.299 96Z" fill="#FBC02D"/>
<path d="M274.401 159.523L190.766 134.46L236.587 305.466L320.222 330.529L274.401 159.523Z" fill="#F9A825"/>
<path d="M190.767 134.46L130.868 197.983L176.689 368.989L236.587 305.466L190.767 134.46Z" fill="#FBC02D"/>
<line x1="196.414" y1="139.158" x2="239.129" y2="298.573" stroke="black" stroke-width="12" stroke-linecap="round" stroke-dasharray="40 40"/>
<line x1="280.216" y1="164.221" x2="322.931" y2="323.636" stroke="black" stroke-width="12" stroke-linecap="round" stroke-dasharray="40 40"/>
<path d="M274.401 159.523L334.299 96L380.12 267.006L320.222 330.529" stroke="black" stroke-width="12" stroke-linecap="round"/>
<path d="M190.766 134.46L274.401 159.523M320.222 330.529L236.587 305.466" stroke="black" stroke-width="12" stroke-linecap="round"/>
<path d="M190.767 134.46L130.868 197.983L176.689 368.989L236.587 305.466" stroke="black" stroke-width="12" stroke-linecap="round"/>
</svg>
