<svg width="145pt" height="38pt" viewBox="0 0 147 40" xmlns="http://www.w3.org/2000/svg"><g id="fontsvg1670144783215" stroke-linecap="round" fill-rule="evenodd" fill="#000000"><path d="M 86.836 12.48 L 86.816 12.48 A 0.033 0.033 0 0 0 86.797 12.49 Q 86.76 12.52 86.695 12.645 A 2.435 2.435 0 0 0 86.68 12.676 Q 86.602 12.813 86.387 13.555 A 100.12 100.12 0 0 0 86.217 14.147 Q 86.069 14.67 85.898 15.293 Q 85.627 16.301 85.25 17.539 A 109.714 109.714 0 0 1 85.244 17.559 Q 84.863 18.809 84.57 19.707 Q 83.508 22.929 82.695 24.061 A 3.212 3.212 0 0 1 82.559 24.238 A 4.314 4.314 0 0 1 82.102 24.715 Q 81.841 24.946 81.579 25.082 A 1.595 1.595 0 0 1 80.84 25.273 A 1.9 1.9 0 0 1 80.294 25.19 A 2.371 2.371 0 0 1 80.039 25.098 Q 78.269 24.495 76.355 20.264 A 32.942 32.942 0 0 1 76.211 19.941 A 23.428 23.428 0 0 0 75.998 19.472 Q 75.826 19.105 75.674 18.818 A 10.638 10.638 0 0 0 75.616 18.711 Q 75.422 18.357 75.371 18.34 L 75.352 18.34 A 0.088 0.088 0 0 0 75.283 18.39 Q 75.191 18.533 75.133 19.085 A 9.382 9.382 0 0 0 75.117 19.258 Q 75.039 20.215 75.02 22.617 A 95.738 95.738 0 0 1 74.98 25.352 A 169.26 169.26 0 0 1 74.961 25.995 Q 74.941 26.617 74.921 27.067 A 40.452 40.452 0 0 1 74.902 27.441 Q 74.864 28.209 74.816 28.58 A 4.567 4.567 0 0 1 74.814 28.594 A 3.483 3.483 0 0 1 74.788 28.767 Q 74.744 29.006 74.678 29.131 A 0.862 0.862 0 0 1 74.536 29.325 A 1.133 1.133 0 0 1 74.414 29.434 A 2.12 2.12 0 0 1 74.305 29.526 Q 74.2 29.61 74.117 29.648 A 0.397 0.397 0 0 1 74.062 29.668 A 1.077 1.077 0 0 1 73.931 29.697 A 0.803 0.803 0 0 1 73.809 29.707 Q 73.73 29.707 73.652 29.688 Q 73.434 29.619 73.177 29.436 A 3.397 3.397 0 0 1 72.949 29.258 Q 72.565 28.931 72.351 28.586 A 2.134 2.134 0 0 1 72.344 28.574 A 0.314 0.314 0 0 1 72.307 28.404 Q 72.185 27.214 72.168 17.695 A 1193.69 1193.69 0 0 0 72.156 15.249 Q 72.112 7.574 71.986 6.197 A 4.028 4.028 0 0 0 71.973 6.074 A 72.799 72.799 0 0 1 71.92 5.657 Q 71.884 5.373 71.846 5.049 A 19.62 19.62 0 0 1 71.801 4.64 Q 71.77 4.319 71.758 4.063 A 14.686 14.686 0 0 1 71.741 3.86 Q 71.719 3.574 71.719 3.398 A 1.539 1.539 0 0 1 71.726 3.248 Q 71.739 3.114 71.777 3.018 A 0.864 0.864 0 0 1 71.849 2.879 Q 71.899 2.798 71.973 2.715 A 1.161 1.161 0 0 1 72.084 2.572 Q 72.148 2.502 72.218 2.455 A 0.567 0.567 0 0 1 72.314 2.402 A 0.854 0.854 0 0 1 72.468 2.356 Q 72.615 2.324 72.812 2.324 A 1.475 1.475 0 0 1 74.092 3.06 Q 74.489 3.66 74.681 4.749 A 9.561 9.561 0 0 1 74.746 5.176 Q 74.926 6.201 75.528 8.543 A 154.99 154.99 0 0 0 75.635 8.955 Q 76.328 11.621 77.129 14.375 Q 77.789 16.645 78.263 18.026 A 30.701 30.701 0 0 0 78.457 18.574 Q 79.512 21.445 80.02 21.445 A 0.382 0.382 0 0 0 80.274 21.28 Q 80.836 20.632 81.895 17.441 Q 82.236 16.416 82.901 14.025 A 242.013 242.013 0 0 0 83.018 13.604 A 513.226 513.226 0 0 0 84.162 9.385 A 577.714 577.714 0 0 0 84.551 7.92 A 371.566 371.566 0 0 0 84.919 6.513 Q 85.366 4.793 85.667 3.556 A 105.481 105.481 0 0 0 85.762 3.164 A 63.729 63.729 0 0 1 85.972 2.346 A 46.763 46.763 0 0 1 86.172 1.611 A 48.423 48.423 0 0 1 86.252 1.331 Q 86.353 0.979 86.413 0.798 A 3.329 3.329 0 0 1 86.445 0.703 Q 86.855 0 87.52 0 A 1.776 1.776 0 0 1 87.759 0.017 A 2.149 2.149 0 0 1 87.891 0.039 Q 88.809 0.288 89.24 1.398 A 3.767 3.767 0 0 1 89.258 1.445 A 3.048 3.048 0 0 1 89.386 1.973 Q 89.605 3.237 89.773 6.819 A 196.487 196.487 0 0 1 89.844 8.496 Q 90.039 13.184 90.469 17.783 A 151.886 151.886 0 0 0 90.687 19.962 Q 90.942 22.324 91.217 24.045 A 42.682 42.682 0 0 0 91.387 25.039 A 13.765 13.765 0 0 0 91.585 25.926 A 16.268 16.268 0 0 0 91.699 26.348 A 16.443 16.443 0 0 0 91.831 26.788 Q 91.893 26.983 91.953 27.152 A 7.063 7.063 0 0 0 92.07 27.461 A 8.33 8.33 0 0 1 92.268 28.018 Q 92.437 28.56 92.458 28.953 A 2.043 2.043 0 0 1 92.461 29.063 Q 92.461 29.551 92.227 29.805 Q 91.953 30.02 91.621 30.02 L 91.504 30.02 A 1.422 1.422 0 0 1 90.919 29.829 A 1.869 1.869 0 0 1 90.684 29.668 Q 90.332 29.352 89.901 28.648 A 10.884 10.884 0 0 1 89.805 28.486 A 9.209 9.209 0 0 1 89.061 26.905 A 8.517 8.517 0 0 1 89.023 26.797 Q 88.283 24.703 87.635 18.587 A 178.942 178.942 0 0 1 87.363 15.801 A 81.717 81.717 0 0 0 87.275 14.913 Q 87.239 14.563 87.202 14.248 A 42.989 42.989 0 0 0 87.129 13.652 Q 87.023 12.844 86.965 12.652 A 0.345 0.345 0 0 0 86.953 12.617 A 1.129 1.129 0 0 0 86.925 12.571 Q 86.884 12.506 86.856 12.488 A 0.037 0.037 0 0 0 86.836 12.48 Z M 2.148 17.773 L 2.148 16.934 L 2.129 11.68 L 1.641 9.805 A 73.906 73.906 0 0 1 1.27 8.335 A 93.466 93.466 0 0 1 0.898 6.738 A 136.017 136.017 0 0 1 0.554 5.157 A 98.722 98.722 0 0 1 0.264 3.731 Q 0.053 2.652 0.011 2.199 A 2.093 2.093 0 0 1 0 2.012 A 2.694 2.694 0 0 1 0.093 1.442 Q 0.329 0.626 1.111 0.538 A 1.762 1.762 0 0 1 1.309 0.527 A 1.908 1.908 0 0 1 2.825 1.268 Q 3.069 1.558 3.269 1.963 A 5.03 5.03 0 0 1 3.398 2.246 Q 4.121 3.965 4.57 8.281 A 57.343 57.343 0 0 0 4.712 9.37 A 44.937 44.937 0 0 0 4.863 10.371 A 21.948 21.948 0 0 0 4.94 10.815 Q 5.016 11.229 5.088 11.503 A 3.67 3.67 0 0 0 5.156 11.738 A 37.647 37.647 0 0 0 5.991 14.006 A 49.637 49.637 0 0 0 7.051 16.436 A 49.486 49.486 0 0 0 7.916 18.201 Q 8.625 19.575 9.297 20.625 A 16.879 16.879 0 0 0 10.828 22.581 A 12.73 12.73 0 0 0 12.49 24.111 Q 14.219 25.43 15.273 25.43 Q 15.43 25.43 15.566 25.41 A 1.131 1.131 0 0 0 16.198 24.837 Q 16.973 23.489 16.973 19.141 A 63.662 63.662 0 0 0 16.958 17.808 A 83.743 83.743 0 0 0 16.914 16.348 Q 16.68 10.664 16.23 7.939 Q 15.781 5.215 14.824 3.691 Q 14.184 2.624 14.16 2.328 A 0.311 0.311 0 0 1 14.16 2.324 A 56.069 56.069 0 0 1 14.156 2.255 Q 14.141 2.026 14.141 1.992 A 0.785 0.785 0 0 1 14.224 1.625 Q 14.311 1.459 14.485 1.341 A 1.158 1.158 0 0 1 14.648 1.25 Q 14.883 1.152 15.137 1.152 A 1.349 1.349 0 0 1 15.713 1.292 Q 16.208 1.526 16.758 2.148 A 7.742 7.742 0 0 1 17.669 3.494 Q 18.04 4.178 18.347 5.01 A 15.667 15.667 0 0 1 18.633 5.859 Q 19.12 7.471 19.404 9.558 A 35.338 35.338 0 0 1 19.492 10.254 Q 19.757 12.53 19.926 16.272 A 184.669 184.669 0 0 1 19.961 17.09 A 70.548 70.548 0 0 1 20.02 18.652 A 55.731 55.731 0 0 1 20.039 20.098 A 38.863 38.863 0 0 1 19.975 22.422 Q 19.774 25.757 18.945 27.207 A 3.575 3.575 0 0 1 18.475 27.95 A 2.529 2.529 0 0 1 17.422 28.711 A 2.374 2.374 0 0 1 16.465 28.906 L 16.289 28.906 Q 15.664 28.848 14.707 28.516 A 11.773 11.773 0 0 1 11.902 27.077 A 15.752 15.752 0 0 1 10.039 25.566 A 18.436 18.436 0 0 1 8.749 24.225 A 15.622 15.622 0 0 1 8.223 23.584 Q 7.625 22.814 6.946 21.74 A 38.03 38.03 0 0 1 6.523 21.055 Q 6.239 20.606 6.001 20.261 A 14.967 14.967 0 0 0 5.859 20.059 A 6.178 6.178 0 0 0 5.761 19.924 Q 5.574 19.677 5.503 19.651 A 0.044 0.044 0 0 0 5.488 19.648 A 0.137 0.137 0 0 0 5.375 19.707 Q 5.358 19.728 5.345 19.757 A 0.345 0.345 0 0 0 5.342 19.766 Q 5.302 19.862 5.255 20.132 A 7.848 7.848 0 0 0 5.234 20.254 A 7.423 7.423 0 0 0 5.205 20.46 Q 5.175 20.694 5.145 21.017 A 30.451 30.451 0 0 0 5.117 21.328 Q 5.059 22.031 4.98 23.164 A 42.105 42.105 0 0 1 4.782 25.193 Q 4.418 28.105 3.737 29.273 A 2.186 2.186 0 0 1 3.379 29.746 A 1.304 1.304 0 0 1 3.114 29.93 A 0.946 0.946 0 0 1 2.676 30.039 Q 2.15 30.039 1.584 29.417 A 4.154 4.154 0 0 1 1.582 29.414 Q 1.029 28.861 0.948 28.552 A 0.439 0.439 0 0 1 0.938 28.496 A 16.409 16.409 0 0 1 0.924 28.387 Q 0.9 28.182 0.899 28.114 A 0.385 0.385 0 0 1 0.898 28.105 A 2.462 2.462 0 0 1 0.931 27.727 Q 0.992 27.336 1.169 26.815 A 9.559 9.559 0 0 1 1.23 26.641 A 10.305 10.305 0 0 0 1.716 25.022 A 14.178 14.178 0 0 0 1.973 23.33 A 29.186 29.186 0 0 0 2.05 22.276 Q 2.148 20.527 2.148 17.773 Z M 112.715 11.855 L 112.715 11.465 Q 112.745 10.919 112.852 10.626 A 0.907 0.907 0 0 1 112.92 10.479 A 0.838 0.838 0 0 1 113.26 10.16 A 1.18 1.18 0 0 1 113.457 10.078 A 1.275 1.275 0 0 1 113.774 9.977 A 1.115 1.115 0 0 1 113.965 9.961 A 1.192 1.192 0 0 1 114.482 10.085 Q 114.777 10.226 115.078 10.527 Q 115.449 10.859 115.576 11.367 A 3.554 3.554 0 0 1 115.648 11.756 Q 115.676 11.96 115.689 12.199 A 9.088 9.088 0 0 1 115.703 12.715 L 115.703 13.301 Q 115.703 14.055 115.842 14.151 A 0.081 0.081 0 0 0 115.859 14.16 L 115.898 14.16 A 0.268 0.268 0 0 0 116.025 14.119 Q 116.266 13.984 116.725 13.401 A 10.797 10.797 0 0 0 116.758 13.359 A 12.049 12.049 0 0 1 117.809 12.196 Q 118.403 11.623 119.012 11.225 A 6.297 6.297 0 0 1 119.609 10.879 A 4.588 4.588 0 0 1 119.976 10.714 Q 120.233 10.613 120.459 10.566 Q 120.777 10.501 121.334 10.49 A 11.864 11.864 0 0 1 121.562 10.488 A 11.976 11.976 0 0 1 121.893 10.493 Q 122.247 10.502 122.489 10.535 A 2.59 2.59 0 0 1 122.627 10.557 Q 122.988 10.625 123.301 10.801 Q 124.824 11.68 125.449 13.35 A 11.943 11.943 0 0 1 126.174 16.476 A 11.198 11.198 0 0 1 126.191 16.699 A 14.272 14.272 0 0 1 126.23 17.754 A 13.948 13.948 0 0 1 125.488 22.227 A 11.771 11.771 0 0 1 122.539 26.953 Q 121.857 27.615 121.321 27.879 A 2.348 2.348 0 0 1 121.318 27.881 A 2.601 2.601 0 0 1 120.156 28.145 Q 119.913 28.145 119.736 28.098 A 0.858 0.858 0 0 1 119.57 28.037 Q 119.399 27.952 119.129 27.699 A 6.067 6.067 0 0 1 118.984 27.559 A 4.042 4.042 0 0 1 118.643 27.152 Q 118.297 26.675 118.265 26.257 A 1.108 1.108 0 0 1 118.262 26.172 A 1.113 1.113 0 0 1 118.39 25.657 A 1.329 1.329 0 0 1 118.418 25.605 A 0.842 0.842 0 0 1 118.488 25.511 Q 118.57 25.414 118.708 25.291 A 4.343 4.343 0 0 1 118.809 25.205 Q 119.102 24.961 119.434 24.746 Q 120.469 24.023 121.201 22.92 Q 121.934 21.816 122.383 20.645 A 11.376 11.376 0 0 0 123.223 16.328 L 123.223 16.113 A 10.457 10.457 0 0 0 123.217 15.785 Q 123.208 15.494 123.184 15.147 A 3.178 3.178 0 0 0 123.114 14.661 A 2.316 2.316 0 0 0 122.949 14.18 Q 122.754 13.77 122.285 13.75 Q 121.914 13.75 121.221 14.16 A 6.883 6.883 0 0 0 120.346 14.77 A 5.988 5.988 0 0 0 120 15.078 Q 118.926 16.187 118.297 18.042 A 12.249 12.249 0 0 0 118.145 18.525 A 16.695 16.695 0 0 0 117.78 20.06 Q 117.421 21.925 117.246 24.57 Q 117.168 25.703 117.158 26.094 Q 117.15 26.414 117.149 26.564 A 6.049 6.049 0 0 0 117.148 26.621 A 10.407 10.407 0 0 0 117.187 27.504 A 11.689 11.689 0 0 0 117.207 27.715 Q 117.267 28.268 117.384 29.165 A 157.709 157.709 0 0 0 117.461 29.746 Q 117.773 31.934 117.871 33.418 Q 117.969 34.902 117.969 35.566 A 8.195 8.195 0 0 1 117.964 35.852 Q 117.955 36.111 117.928 36.287 A 1.705 1.705 0 0 1 117.91 36.387 Q 117.793 36.758 117.52 37.022 A 1.076 1.076 0 0 1 117.313 37.18 A 0.747 0.747 0 0 1 116.934 37.285 A 0.573 0.573 0 0 1 116.84 37.277 Q 116.727 37.258 116.572 37.197 Q 116.348 37.109 116.152 36.973 Q 115.215 36.406 114.805 34.854 A 9.9 9.9 0 0 1 114.618 33.959 Q 114.446 32.928 114.351 31.406 A 54.047 54.047 0 0 1 114.277 29.863 A 25.15 25.15 0 0 0 114.25 29.339 Q 114.199 28.499 114.082 27.334 A 106.641 106.641 0 0 0 113.73 24.277 A 126.215 126.215 0 0 1 113.19 19.912 Q 112.827 16.458 112.754 13.613 A 86.832 86.832 0 0 1 112.737 13.093 Q 112.718 12.458 112.715 12 A 24.969 24.969 0 0 1 112.715 11.855 Z M 130.488 11.855 L 130.488 11.465 Q 130.519 10.919 130.626 10.626 A 0.907 0.907 0 0 1 130.693 10.479 A 0.838 0.838 0 0 1 131.033 10.16 A 1.18 1.18 0 0 1 131.23 10.078 A 1.275 1.275 0 0 1 131.548 9.977 A 1.115 1.115 0 0 1 131.738 9.961 A 1.192 1.192 0 0 1 132.255 10.085 Q 132.551 10.226 132.852 10.527 Q 133.223 10.859 133.35 11.367 A 3.554 3.554 0 0 1 133.422 11.756 Q 133.449 11.96 133.463 12.199 A 9.088 9.088 0 0 1 133.477 12.715 L 133.477 13.301 Q 133.477 14.055 133.615 14.151 A 0.081 0.081 0 0 0 133.633 14.16 L 133.672 14.16 A 0.268 0.268 0 0 0 133.798 14.119 Q 134.039 13.984 134.498 13.401 A 10.797 10.797 0 0 0 134.531 13.359 A 12.049 12.049 0 0 1 135.582 12.196 Q 136.177 11.623 136.785 11.225 A 6.297 6.297 0 0 1 137.383 10.879 A 4.588 4.588 0 0 1 137.749 10.714 Q 138.006 10.613 138.232 10.566 Q 138.551 10.501 139.107 10.49 A 11.864 11.864 0 0 1 139.336 10.488 A 11.976 11.976 0 0 1 139.666 10.493 Q 140.02 10.502 140.262 10.535 A 2.59 2.59 0 0 1 140.4 10.557 Q 140.762 10.625 141.074 10.801 Q 142.598 11.68 143.223 13.35 A 11.943 11.943 0 0 1 143.947 16.476 A 11.198 11.198 0 0 1 143.965 16.699 A 14.272 14.272 0 0 1 144.004 17.754 A 13.948 13.948 0 0 1 143.262 22.227 A 11.771 11.771 0 0 1 140.313 26.953 Q 139.631 27.615 139.095 27.879 A 2.348 2.348 0 0 1 139.092 27.881 A 2.601 2.601 0 0 1 137.93 28.145 Q 137.686 28.145 137.51 28.098 A 0.858 0.858 0 0 1 137.344 28.037 Q 137.173 27.952 136.902 27.699 A 6.067 6.067 0 0 1 136.758 27.559 A 4.042 4.042 0 0 1 136.417 27.152 Q 136.071 26.675 136.038 26.257 A 1.108 1.108 0 0 1 136.035 26.172 A 1.113 1.113 0 0 1 136.163 25.657 A 1.329 1.329 0 0 1 136.191 25.605 A 0.842 0.842 0 0 1 136.262 25.511 Q 136.344 25.414 136.482 25.291 A 4.343 4.343 0 0 1 136.582 25.205 Q 136.875 24.961 137.207 24.746 Q 138.242 24.023 138.975 22.92 Q 139.707 21.816 140.156 20.645 A 11.376 11.376 0 0 0 140.996 16.328 L 140.996 16.113 A 10.457 10.457 0 0 0 140.991 15.785 Q 140.981 15.494 140.957 15.147 A 3.178 3.178 0 0 0 140.887 14.661 A 2.316 2.316 0 0 0 140.723 14.18 Q 140.527 13.77 140.059 13.75 Q 139.687 13.75 138.994 14.16 A 6.883 6.883 0 0 0 138.119 14.77 A 5.988 5.988 0 0 0 137.773 15.078 Q 136.699 16.187 136.071 18.042 A 12.249 12.249 0 0 0 135.918 18.525 A 16.695 16.695 0 0 0 135.553 20.06 Q 135.194 21.925 135.02 24.57 Q 134.941 25.703 134.932 26.094 Q 134.924 26.414 134.922 26.564 A 6.049 6.049 0 0 0 134.922 26.621 A 10.407 10.407 0 0 0 134.961 27.504 A 11.689 11.689 0 0 0 134.98 27.715 Q 135.04 28.268 135.157 29.165 A 157.709 157.709 0 0 0 135.234 29.746 Q 135.547 31.934 135.645 33.418 Q 135.742 34.902 135.742 35.566 A 8.195 8.195 0 0 1 135.738 35.852 Q 135.728 36.111 135.702 36.287 A 1.705 1.705 0 0 1 135.684 36.387 Q 135.566 36.758 135.293 37.022 A 1.076 1.076 0 0 1 135.087 37.18 A 0.747 0.747 0 0 1 134.707 37.285 A 0.573 0.573 0 0 1 134.613 37.277 Q 134.5 37.258 134.346 37.197 Q 134.121 37.109 133.926 36.973 Q 132.988 36.406 132.578 34.854 A 9.9 9.9 0 0 1 132.391 33.959 Q 132.22 32.928 132.124 31.406 A 54.047 54.047 0 0 1 132.051 29.863 A 25.15 25.15 0 0 0 132.024 29.339 Q 131.973 28.499 131.855 27.334 A 106.641 106.641 0 0 0 131.504 24.277 A 126.215 126.215 0 0 1 130.964 19.912 Q 130.601 16.458 130.527 13.613 A 86.832 86.832 0 0 1 130.51 13.093 Q 130.491 12.458 130.489 12 A 24.969 24.969 0 0 1 130.488 11.855 Z M 47.695 10.449 L 47.695 10.84 Q 47.695 11.098 47.725 11.244 A 0.634 0.634 0 0 0 47.744 11.318 A 0.866 0.866 0 0 0 47.768 11.383 Q 47.807 11.474 47.852 11.504 Q 47.969 11.582 48.311 11.67 Q 48.652 11.758 49.082 11.816 A 6.366 6.366 0 0 1 50.113 12.027 Q 50.625 12.181 50.994 12.417 A 1.95 1.95 0 0 1 51.934 13.848 A 3.545 3.545 0 0 1 51.947 13.994 Q 51.952 14.067 51.953 14.131 A 2.003 2.003 0 0 1 51.953 14.16 A 1.225 1.225 0 0 1 51.947 14.284 A 0.959 0.959 0 0 1 51.934 14.375 Q 51.875 14.57 51.641 14.785 A 1.423 1.423 0 0 1 51.534 14.893 Q 51.434 14.984 51.338 15.029 A 0.524 0.524 0 0 1 51.24 15.062 Q 51.134 15.088 50.972 15.095 A 3.02 3.02 0 0 1 50.84 15.098 A 5.66 5.66 0 0 1 50.649 15.094 Q 50.327 15.083 49.785 15.039 Q 49.089 15.001 48.756 15 A 6.036 6.036 0 0 0 48.73 15 A 3.064 3.064 0 0 0 48.575 15.004 Q 48.359 15.015 48.242 15.059 A 0.64 0.64 0 0 0 48.074 15.155 Q 48.012 15.203 47.953 15.269 A 1.1 1.1 0 0 0 47.949 15.273 L 47.637 15.586 L 47.734 19.063 A 185.677 185.677 0 0 0 47.825 21.768 A 169.221 169.221 0 0 0 47.832 21.943 A 103.744 103.744 0 0 0 47.861 22.596 Q 47.904 23.484 47.947 23.98 A 14.237 14.237 0 0 0 47.949 24.004 Q 47.99 24.434 48.034 24.969 A 154.603 154.603 0 0 1 48.076 25.479 A 87.465 87.465 0 0 1 48.13 26.186 Q 48.154 26.511 48.172 26.802 A 51.161 51.161 0 0 1 48.184 26.992 A 41.842 41.842 0 0 1 48.201 27.322 Q 48.223 27.783 48.223 28.047 Q 48.223 28.398 48.164 28.545 A 0.745 0.745 0 0 1 48.075 28.704 A 1.023 1.023 0 0 1 47.969 28.828 A 1.219 1.219 0 0 1 47.714 29.003 A 0.901 0.901 0 0 1 47.305 29.102 Q 46.984 29.102 46.619 28.873 A 2.619 2.619 0 0 1 46.367 28.691 Q 45.934 28.351 45.648 27.692 A 4.484 4.484 0 0 1 45.508 27.324 A 6.033 6.033 0 0 1 45.345 26.718 Q 45.147 25.815 45.02 24.326 A 68.563 68.563 0 0 1 44.933 23.187 Q 44.845 21.899 44.762 20.146 A 269.917 269.917 0 0 1 44.687 18.457 Q 44.648 17.48 44.58 16.768 Q 44.512 16.055 44.453 15.918 Q 44.403 15.769 44.318 15.732 A 0.144 0.144 0 0 0 44.287 15.723 A 1.213 1.213 0 0 0 44.147 15.705 A 1.027 1.027 0 0 0 44.082 15.703 Q 43.99 15.703 43.863 15.721 A 3.207 3.207 0 0 0 43.73 15.742 A 3.417 3.417 0 0 0 43.526 15.778 Q 43.421 15.8 43.301 15.83 A 8.074 8.074 0 0 0 43.047 15.898 A 6.924 6.924 0 0 0 42.312 16.153 A 6.377 6.377 0 0 0 42.266 16.172 Q 41.544 16.464 41.358 16.484 Q 41.184 16.503 41.138 16.504 A 0.219 0.219 0 0 1 41.133 16.504 A 1.146 1.146 0 0 1 40.8 16.452 Q 40.664 16.411 40.522 16.337 A 2.055 2.055 0 0 1 40.469 16.309 Q 39.785 15.918 39.512 15.293 A 5.027 5.027 0 0 1 39.38 14.962 Q 39.238 14.564 39.238 14.297 A 1.289 1.289 0 0 1 39.355 13.75 A 1.203 1.203 0 0 1 39.694 13.425 Q 40.316 12.996 41.848 12.598 A 23.202 23.202 0 0 1 42.578 12.422 Q 43.149 12.288 43.597 12.153 A 11.681 11.681 0 0 0 43.74 12.109 Q 44.148 11.981 44.3 11.893 A 0.404 0.404 0 0 0 44.355 11.855 Q 44.423 11.805 44.468 11.552 A 2.759 2.759 0 0 0 44.482 11.465 A 4.825 4.825 0 0 0 44.506 11.272 Q 44.537 10.977 44.564 10.489 A 34.227 34.227 0 0 0 44.57 10.371 A 30.508 30.508 0 0 0 44.589 9.952 Q 44.606 9.482 44.619 8.85 A 113.027 113.027 0 0 0 44.629 8.242 A 108.508 108.508 0 0 1 44.65 7.418 Q 44.731 4.71 44.902 4.453 A 1.617 1.617 0 0 1 45.173 4.103 A 1.093 1.093 0 0 1 45.957 3.789 A 1.423 1.423 0 0 1 46.191 3.809 A 1.727 1.727 0 0 1 47.244 4.448 A 2.667 2.667 0 0 1 47.539 4.902 A 2.017 2.017 0 0 1 47.625 5.156 Q 47.661 5.293 47.686 5.449 A 3.677 3.677 0 0 1 47.717 5.724 Q 47.728 5.859 47.732 6.012 A 7.171 7.171 0 0 1 47.734 6.201 L 47.734 6.934 A 42.13 42.13 0 0 1 47.733 7.245 Q 47.73 7.723 47.716 8.356 A 120.647 120.647 0 0 1 47.715 8.398 A 165.408 165.408 0 0 0 47.706 8.845 Q 47.695 9.465 47.695 9.795 L 47.695 10.449 Z M 66.743 22.241 A 1.693 1.693 0 0 0 66.348 22.383 Q 66.201 22.456 65.956 22.606 A 14.564 14.564 0 0 0 65.781 22.715 A 12.545 12.545 0 0 0 65.039 23.223 A 13.442 13.442 0 0 1 63.229 24.296 A 10.261 10.261 0 0 1 60.176 25.254 A 8.42 8.42 0 0 1 60.144 25.259 Q 59.903 25.295 59.685 25.313 A 5.122 5.122 0 0 1 59.258 25.332 A 3.392 3.392 0 0 1 58.884 25.313 Q 58.427 25.262 58.145 25.078 Q 57.676 24.785 57.559 24.075 A 3.205 3.205 0 0 1 57.52 23.555 A 7.776 7.776 0 0 1 57.52 23.535 Q 57.521 22.792 57.666 22.686 A 0.632 0.632 0 0 1 57.749 22.634 A 0.473 0.473 0 0 1 57.969 22.578 A 0.932 0.932 0 0 1 58.034 22.581 Q 58.185 22.591 58.396 22.649 A 4.079 4.079 0 0 1 58.613 22.715 A 4.95 4.95 0 0 0 58.759 22.751 A 4.4 4.4 0 0 0 59.766 22.871 A 4.34 4.34 0 0 0 61.066 22.669 Q 61.847 22.425 62.619 21.887 A 8.977 8.977 0 0 0 63.887 20.801 A 21.491 21.491 0 0 0 64.011 20.66 Q 65.84 18.575 65.85 17.441 A 15311.851 15311.851 0 0 0 65.852 17.156 Q 65.859 16.267 65.859 16.25 A 5.089 5.089 0 0 0 65.83 15.694 Q 65.725 14.736 65.243 14.021 A 3.717 3.717 0 0 0 63.965 12.871 Q 63.496 12.617 63.213 12.559 A 2.317 2.317 0 0 0 63.152 12.547 Q 62.891 12.5 62.559 12.5 A 4.074 4.074 0 0 0 62.447 12.502 A 4.731 4.731 0 0 0 62.148 12.52 A 6.431 6.431 0 0 0 61.835 12.536 Q 61.616 12.554 61.427 12.586 A 3.048 3.048 0 0 0 61.074 12.666 A 3.244 3.244 0 0 0 60.914 12.718 Q 60.638 12.816 60.265 12.994 A 13.26 13.26 0 0 0 59.922 13.164 A 11.985 11.985 0 0 0 59.752 13.252 A 9.999 9.999 0 0 0 55.713 17.041 A 11.704 11.704 0 0 0 54.8 18.935 A 8.589 8.589 0 0 0 54.238 21.934 Q 54.238 22.539 54.316 23.164 A 8.222 8.222 0 0 0 55.586 26.318 A 5.48 5.48 0 0 0 58.184 28.438 Q 58.709 28.617 59.436 28.679 A 9.7 9.7 0 0 0 60.254 28.711 A 10.681 10.681 0 0 0 60.725 28.701 A 9.339 9.339 0 0 0 62.656 28.418 A 12.873 12.873 0 0 0 64.385 27.808 A 17.463 17.463 0 0 0 66.143 26.924 A 17.276 17.276 0 0 0 66.812 26.522 Q 68.08 25.718 68.535 25.059 A 2.312 2.312 0 0 0 68.69 24.71 A 1.742 1.742 0 0 0 68.789 24.141 A 1.776 1.776 0 0 0 68.789 24.131 A 1.845 1.845 0 0 0 68.691 23.555 A 3.16 3.16 0 0 0 68.592 23.31 Q 68.485 23.074 68.35 22.894 A 1.469 1.469 0 0 0 67.92 22.5 A 2.915 2.915 0 0 0 67.642 22.355 Q 67.491 22.287 67.354 22.25 A 1.175 1.175 0 0 0 67.051 22.207 A 1.436 1.436 0 0 0 66.743 22.241 Z M 107.031 13.984 L 107.637 15.195 L 107.637 19.492 A 195.18 195.18 0 0 0 107.64 20.623 Q 107.648 22.119 107.682 22.96 A 26.277 26.277 0 0 0 107.686 23.047 Q 107.734 24.18 107.91 24.619 A 1.448 1.448 0 0 0 108.477 25.313 A 2.562 2.562 0 0 1 109.085 26.036 A 2.399 2.399 0 0 1 109.277 26.484 A 2.264 2.264 0 0 1 109.351 26.787 A 1.722 1.722 0 0 1 109.375 27.07 A 1.536 1.536 0 0 1 109.28 27.614 A 1.454 1.454 0 0 1 109.219 27.754 A 1.018 1.018 0 0 1 108.87 28.104 A 1.484 1.484 0 0 1 108.574 28.242 Q 108.32 28.34 108.047 28.34 A 1.353 1.353 0 0 1 107.656 28.281 A 2.033 2.033 0 0 1 106.861 27.862 Q 106.306 27.406 105.803 26.507 A 8.831 8.831 0 0 1 105.645 26.211 Q 105.45 25.852 105.279 25.579 A 6.991 6.991 0 0 0 105.176 25.42 Q 104.975 25.118 104.893 25.099 A 0.046 0.046 0 0 0 104.883 25.098 Q 104.806 25.098 104.576 25.326 A 3.904 3.904 0 0 0 104.57 25.332 Q 104.369 25.533 104.139 25.807 A 11.032 11.032 0 0 0 104.063 25.898 A 12.339 12.339 0 0 1 103.027 27.087 Q 101.807 28.303 100.655 28.575 A 2.853 2.853 0 0 1 100 28.652 A 2.705 2.705 0 0 1 99.043 28.477 Q 98.103 28.127 97.311 27.159 A 6.359 6.359 0 0 1 97.217 27.041 Q 96.387 25.977 96.016 24.629 Q 95.781 23.555 95.781 22.461 A 8.923 8.923 0 0 1 95.823 21.639 Q 95.902 20.786 96.133 19.678 Q 96.484 17.988 97.324 16.035 A 10.746 10.746 0 0 1 99.055 13.054 A 12.304 12.304 0 0 1 99.307 12.754 Q 100.625 11.23 102.598 11.016 A 4.731 4.731 0 0 1 102.896 10.998 A 4.074 4.074 0 0 1 103.008 10.996 Q 105.468 10.996 106.917 13.758 A 9.28 9.28 0 0 1 107.031 13.984 Z M 37.051 17.266 A 6.546 6.546 0 0 0 36.924 16.755 Q 36.676 15.895 36.152 14.863 A 10.389 10.389 0 0 0 35.804 14.2 Q 34.638 12.166 32.93 11.523 A 4.636 4.636 0 0 0 32.472 11.363 A 3.491 3.491 0 0 0 31.934 11.25 Q 31.582 11.206 30.989 11.195 A 22.881 22.881 0 0 0 30.566 11.191 A 40.104 40.104 0 0 0 30.264 11.193 Q 29.952 11.195 29.728 11.202 A 9.098 9.098 0 0 0 29.531 11.211 Q 29.355 11.221 29.202 11.25 A 1.782 1.782 0 0 0 28.916 11.328 A 3.189 3.189 0 0 0 28.718 11.41 Q 28.613 11.457 28.493 11.518 A 7.982 7.982 0 0 0 28.262 11.641 Q 25.735 13.044 24.843 16.164 A 12.972 12.972 0 0 0 24.395 18.867 A 13.371 13.371 0 0 0 24.392 18.911 A 12.262 12.262 0 0 0 24.375 19.551 A 12.547 12.547 0 0 0 24.459 21.017 A 9.913 9.913 0 0 0 25.898 25.195 A 8.004 8.004 0 0 0 30.586 28.77 A 4.369 4.369 0 0 0 30.784 28.828 A 3.785 3.785 0 0 0 31.777 28.965 Q 32.842 28.965 33.765 28.275 A 5.139 5.139 0 0 0 34.629 27.441 A 7.952 7.952 0 0 0 35.906 25.611 Q 37.061 23.356 37.168 19.98 A 23.832 23.832 0 0 0 37.177 19.749 A 20.91 20.91 0 0 0 37.187 19.082 A 15.079 15.079 0 0 0 37.183 18.711 Q 37.173 18.312 37.142 17.96 A 7.941 7.941 0 0 0 37.051 17.266 Z M 33.809 21.602 Q 34.102 20.449 34.199 19.219 A 14.32 14.32 0 0 0 34.243 18.624 A 10.422 10.422 0 0 0 34.258 18.086 A 7.438 7.438 0 0 0 34.248 17.696 Q 34.238 17.511 34.219 17.349 A 3.909 3.909 0 0 0 34.199 17.207 A 8.296 8.296 0 0 0 33.971 16.32 Q 33.679 15.416 33.236 14.957 A 1.65 1.65 0 0 0 32.871 14.668 Q 32.344 14.434 31.738 14.434 Q 31.352 14.434 30.697 14.599 A 10.364 10.364 0 0 0 30.547 14.639 A 2.386 2.386 0 0 0 29.946 14.901 Q 29.46 15.191 28.945 15.742 A 5.386 5.386 0 0 0 28.014 17.344 Q 27.648 18.301 27.52 19.531 A 10.867 10.867 0 0 0 27.463 20.426 A 9.693 9.693 0 0 0 27.461 20.625 A 8.256 8.256 0 0 0 27.617 22.266 A 6.479 6.479 0 0 0 28.086 23.711 A 3.913 3.913 0 0 0 28.773 24.638 A 3.273 3.273 0 0 0 29.727 25.293 A 2.678 2.678 0 0 0 30.198 25.452 A 2.054 2.054 0 0 0 30.664 25.508 A 1.81 1.81 0 0 0 31.602 25.254 A 3.443 3.443 0 0 0 32.164 24.763 Q 32.4 24.512 32.624 24.19 A 7.13 7.13 0 0 0 32.891 23.779 A 8.391 8.391 0 0 0 33.809 21.602 Z M 98.906 23.75 L 98.906 23.848 A 4.471 4.471 0 0 0 98.923 24.257 Q 98.985 24.922 99.269 25.061 A 0.37 0.37 0 0 0 99.434 25.098 Q 99.465 25.098 99.572 25.06 A 3.194 3.194 0 0 0 99.629 25.039 A 3.253 3.253 0 0 0 99.941 24.902 A 2.585 2.585 0 0 0 100.311 24.649 Q 100.676 24.354 101.105 23.849 A 10.835 10.835 0 0 0 101.26 23.662 A 11.637 11.637 0 0 0 102.286 22.183 A 10.354 10.354 0 0 0 102.52 21.758 Q 102.774 21.22 103.131 20.298 A 54.904 54.904 0 0 0 103.359 19.697 Q 103.867 18.34 104.268 17.07 A 31.876 31.876 0 0 0 104.404 16.629 Q 104.664 15.761 104.668 15.516 A 0.458 0.458 0 0 0 104.668 15.508 A 1.023 1.023 0 0 0 104.663 15.414 Q 104.653 15.301 104.619 15.147 A 6.005 6.005 0 0 0 104.554 14.877 A 5.014 5.014 0 0 0 104.512 14.727 A 1.144 1.144 0 0 0 104.36 14.472 A 0.699 0.699 0 0 0 103.789 14.199 A 0.831 0.831 0 0 0 103.574 14.233 Q 103.241 14.324 102.689 14.661 A 9.449 9.449 0 0 0 102.568 14.736 A 2.802 2.802 0 0 0 102.076 15.146 Q 101.606 15.625 101.086 16.472 A 15.934 15.934 0 0 0 100.684 17.168 Q 99.883 18.77 99.414 20.586 A 19.819 19.819 0 0 0 99.123 21.882 Q 98.931 22.908 98.906 23.75 Z M 62.031 16.387 A 0.544 0.544 0 0 0 61.865 16.418 Q 61.605 16.504 61.162 16.823 A 8.083 8.083 0 0 0 61.025 16.924 Q 60.312 17.461 59.717 18.096 Q 59.206 18.641 59.133 18.919 A 0.339 0.339 0 0 0 59.121 19.004 A 0.851 0.851 0 0 0 59.132 19.149 Q 59.177 19.407 59.402 19.414 A 0.406 0.406 0 0 0 59.414 19.414 A 0.58 0.58 0 0 0 59.579 19.387 Q 59.822 19.314 60.2 19.048 A 5.501 5.501 0 0 0 60.234 19.023 A 6.205 6.205 0 0 0 61.504 17.939 Q 62.038 17.338 62.237 16.877 A 1.957 1.957 0 0 0 62.246 16.855 A 0.805 0.805 0 0 0 62.286 16.742 Q 62.305 16.668 62.305 16.602 A 0.238 0.238 0 0 0 62.287 16.506 Q 62.243 16.405 62.089 16.389 A 0.587 0.587 0 0 0 62.031 16.387 Z" vector-effect="non-scaling-stroke"/></g></svg>